<?xml version="1.0" encoding="UTF-8" standalone="no"?><!DOCTYPE svg PUBLIC "-//W3C//DTD SVG 1.1//EN" "http://www.w3.org/Graphics/SVG/1.1/DTD/svg11.dtd"><svg width="100%" height="100%" viewBox="0 0 86 19" version="1.1" xmlns="http://www.w3.org/2000/svg" xmlns:xlink="http://www.w3.org/1999/xlink" xml:space="preserve" xmlns:serif="http://www.serif.com/" style="fill-rule:evenodd;clip-rule:evenodd;stroke-linejoin:round;stroke-miterlimit:2;"><path d="M68.695,3.2c0.016,1.299 0.019,2.365 0.018,3.125c-0.001,1.044 -0.008,2.108 -0.008,2.108c-0.039,2.602 0,2.89 0,4.053c0,2.077 1.233,3.317 3.298,3.317l2.069,0l0,-2.351l-0.982,0c-0.967,0 -1.591,-0.62 -1.591,-1.579l0,-3.552c0.814,0.001 1.627,0.003 2.441,0.004c-0.842,-0.546 -1.685,-1.092 -2.527,-1.637l-0.004,-3.509c-0.905,0.007 -1.81,0.014 -2.714,0.021Zm-56.089,0c0.016,1.299 0.019,2.365 0.019,3.125c-0.001,1.044 -0.009,2.108 -0.009,2.108c-0.038,2.602 0,2.89 0,4.053c0,2.077 1.233,3.317 3.299,3.317l2.069,0l0,-2.351l-0.983,0c-0.966,0 -1.59,-0.62 -1.59,-1.579l0,-3.552c0.813,0.001 1.627,0.003 2.441,0.004c-0.843,-0.546 -1.685,-1.092 -2.528,-1.637c-0.001,-1.17 -0.002,-2.34 -0.003,-3.509c-0.905,0.007 -1.81,0.014 -2.715,0.021Zm6.848,12.621l2.667,0c0.003,-3.643 0.007,-7.287 0.01,-10.93c-0.893,-0.566 -1.785,-1.132 -2.677,-1.698l0,12.628Zm-19.454,-5.538c0,3.049 2.471,5.52 5.52,5.52c0.803,0 1.601,-0.235 1.601,-0.235c0.91,-0.277 1.553,-0.731 1.917,-1.032c0.667,0.422 1.334,0.845 2.002,1.267l0,-5.519l0,-0.001c0,-0.011 0.039,-0.615 0,-1.831c-1.834,-1.226 -3.8,-2.459 -5.634,-3.685c-2.996,0.061 -5.406,2.506 -5.406,5.516Zm2.57,0.165c0,-1.629 1.321,-2.95 2.95,-2.95c1.629,0 2.949,1.321 2.949,2.95c0,1.628 -1.32,2.949 -2.949,2.949c-1.629,0 -2.95,-1.321 -2.95,-2.949Zm45.588,-0.156c0,3.048 2.471,5.52 5.52,5.52c0.803,0 1.601,-0.236 1.601,-0.236c0.91,-0.276 1.553,-0.731 1.917,-1.032c0.667,0.423 1.335,0.845 2.002,1.268l0,-5.52c0,-0.012 0.039,-0.616 0,-1.831c-1.834,-1.226 -3.8,-2.46 -5.634,-3.686c-2.996,0.061 -5.406,2.507 -5.406,5.517Zm2.571,0.164c0,-1.629 1.32,-2.949 2.949,-2.949c1.629,0 2.949,1.32 2.949,2.949c0,1.629 -1.32,2.95 -2.949,2.95c-1.629,0 -2.949,-1.321 -2.949,-2.95Zm-27.037,-0.164c0,3.048 2.472,5.52 5.52,5.52c0.803,0 1.601,-0.236 1.601,-0.236c0.911,-0.276 1.554,-0.731 1.917,-1.032c0.668,0.423 1.335,0.845 2.002,1.268l0,-5.52c0,-0.012 0.039,-0.616 0,-1.831c-1.834,-1.226 -3.8,-2.46 -5.634,-3.686c-2.996,0.061 -5.406,2.507 -5.406,5.517Zm2.571,0.164c0,-1.629 1.32,-2.949 2.949,-2.949c1.629,0 2.949,1.32 2.949,2.949c0,1.629 -1.32,2.95 -2.949,2.95c-1.629,0 -2.949,-1.321 -2.949,-2.95Zm9.882,-0.173c0,3.191 2.388,5.509 5.695,5.509l0,0c2.261,0 4.098,-1.145 4.99,-2.973l-2.372,-1.687c-0.354,1.163 -1.433,2.011 -2.712,2.011c-1.567,0 -2.838,-1.271 -2.838,-2.838c0,-1.567 1.271,-2.837 2.838,-2.837c1.183,0 2.194,0.726 2.62,1.755l2.353,-1.673c-0.906,-1.691 -2.68,-2.732 -4.868,-2.732c-3.329,0 -5.706,2.273 -5.706,5.465Zm39.448,0.436c0,1.344 0.454,2.521 1.231,3.403c1.36,1.544 3.243,1.689 3.961,1.69c2.069,0.003 3.446,-1.172 3.786,-1.481c-0.573,-0.518 -1.147,-1.037 -1.721,-1.556c-0.147,0.162 -0.898,0.951 -2.065,0.963c-0.239,0.002 -0.911,0.001 -1.54,-0.477c-0.471,-0.357 -0.794,-0.907 -0.934,-1.62l-0.09,-0.459l7.751,0c0.019,-0.194 0.028,-0.376 0.028,-0.552c0,-2.89 -2.193,-4.988 -5.215,-4.988c-3.008,0 -5.192,2.136 -5.192,5.077Zm2.779,-1.362c0.313,-1.114 1.139,-1.752 2.265,-1.752c1.17,0 2.001,0.62 2.342,1.745l0.141,0.468l-4.877,0l0.129,-0.461Zm-11.845,-3.658c-1.206,0 -2.01,0.334 -2.687,1.118l-0.405,0.469c-0.864,-0.511 -1.727,-1.023 -2.59,-1.535l0,10.061l2.931,0l0,-5.123c0,-1.621 0.727,-2.377 2.289,-2.377l1.047,0l0,-2.613l-0.585,0Z" style="fill:#e5523d;fill-rule:nonzero;"/></svg>