<?xml version="1.0" encoding="UTF-8" standalone="no"?><!DOCTYPE svg PUBLIC "-//W3C//DTD SVG 1.1//EN" "http://www.w3.org/Graphics/SVG/1.1/DTD/svg11.dtd"><svg width="24" height="24" viewBox="0 0 24 24" version="1.1" xmlns="http://www.w3.org/2000/svg" xmlns:xlink="http://www.w3.org/1999/xlink" xml:space="preserve" xmlns:serif="http://www.serif.com/" style="fill-rule:evenodd;clip-rule:evenodd;stroke-linejoin:round;stroke-miterlimit:2;"><path d="M23.506,5.814c-0.277,-1.028 -1.088,-1.838 -2.116,-2.115c-1.878,-0.514 -9.39,-0.514 -9.39,-0.514c0,0 -7.512,0 -9.391,0.494c-1.008,0.277 -1.838,1.107 -2.115,2.135c-0.494,1.878 -0.494,5.773 -0.494,5.773c0,0 0,3.914 0.494,5.773c0.277,1.028 1.087,1.838 2.116,2.115c1.897,0.514 9.39,0.514 9.39,0.514c0,0 7.512,0 9.39,-0.494c1.028,-0.277 1.839,-1.088 2.116,-2.116c0.494,-1.878 0.494,-5.772 0.494,-5.772c0,0 0.02,-3.915 -0.494,-5.793Z" style="fill:#869ab8;fill-rule:nonzero;"/><path d="M9.608,15.185l6.247,-3.598l-6.247,-3.598l0,7.196Z" style="fill:#fff;fill-rule:nonzero;"/></svg>